REM MD5 c81893fcccd6004673d57591dab09a27
FILE "Best Sports Games Ever 2000 (Europe, Australia).bin" BINARY
  TRACK 01 MODE2/2352
    INDEX 01 00:00:00
  TRACK 02 AUDIO
    INDEX 00 36:23:17
    INDEX 01 36:25:17
  TRACK 03 AUDIO
    INDEX 00 39:35:17
    INDEX 01 39:37:17
REM LEADOUT 42:38:50
